<?xml version="1.0" encoding="UTF-8" standalone="no"?>
<svg width="37px" height="37px" viewBox="0 0 37 37" version="1.1" xmlns="http://www.w3.org/2000/svg" xmlns:xlink="http://www.w3.org/1999/xlink">
    <!-- Generator: Sketch 3.6.1 (26313) - http://www.bohemiancoding.com/sketch -->
    <title>fa-facebook</title>
    <desc>Created with Sketch.</desc>
    <defs></defs>
    <g id="Page-1" stroke="none" stroke-width="1" fill="none" fill-rule="evenodd">
        <g id="Desktop-HD" transform="translate(-702.000000, -1191.000000)">
            <g id="about-me" transform="translate(0.000000, 660.000000)">
                <g id="social-icons" transform="translate(583.000000, 532.000000)">
                    <g id="fa-facebook" transform="translate(120.000000, 0.000000)">
                        <path d="M14.453,17.706 L14.453,27.201 L18.291,27.201 L18.291,17.706 L21.479,17.706 L21.972,14.003 L18.291,14.003 L18.291,11.623 C18.291,11.04 18.426,10.591 18.673,10.277 C18.92,9.985 19.391,9.828 20.109,9.828 L22.062,9.828 L22.062,6.528 C21.389,6.416 20.446,6.371 19.212,6.371 C17.775,6.371 16.608,6.797 15.755,7.651 C14.88,8.503 14.453,9.715 14.453,11.264 L14.453,14.003 L11.266,14.003 L11.266,17.706 L14.453,17.706" id="Fill-22" fill="#5D5D5D"></path>
                        <ellipse id="Oval-15" stroke="#979797" cx="17.5" cy="17.5" rx="17.5" ry="17.5"></ellipse>
                    </g>
                </g>
            </g>
        </g>
    </g>
</svg>