<?xml version="1.0" encoding="UTF-8" standalone="no"?>
<svg width="37px" height="37px" viewBox="0 0 37 37" version="1.1" xmlns="http://www.w3.org/2000/svg" xmlns:xlink="http://www.w3.org/1999/xlink">
    <!-- Generator: Sketch 3.6.1 (26313) - http://www.bohemiancoding.com/sketch -->
    <title>fa-google-plus</title>
    <desc>Created with Sketch.</desc>
    <defs></defs>
    <g id="Page-1" stroke="none" stroke-width="1" fill="none" fill-rule="evenodd">
        <g id="Desktop-HD" transform="translate(-822.000000, -1191.000000)">
            <g id="about-me" transform="translate(0.000000, 660.000000)">
                <g id="social-icons" transform="translate(583.000000, 532.000000)">
                    <g id="fa-google-plus" transform="translate(240.000000, 0.000000)">
                        <path d="M9.942,25.803 C10.413,26.611 11.132,27.172 12.074,27.531 C13.039,27.868 14.072,28.047 15.172,28.047 C16.496,28.047 17.731,27.8 18.898,27.329 C20.065,26.858 20.94,26.095 21.546,25.084 C21.95,24.389 22.152,23.67 22.152,22.907 C22.152,22.256 22.018,21.673 21.748,21.134 C21.479,20.595 21.165,20.169 20.783,19.832 C20.424,19.496 20.042,19.204 19.661,18.912 C19.279,18.643 18.943,18.351 18.673,18.081 C18.404,17.79 18.269,17.498 18.269,17.184 C18.269,16.914 18.382,16.645 18.584,16.376 C18.786,16.106 19.032,15.837 19.324,15.59 C19.616,15.343 19.908,15.074 20.2,14.782 C20.491,14.49 20.738,14.109 20.94,13.615 C21.142,13.143 21.255,12.605 21.255,11.999 C21.255,11.236 21.097,10.585 20.783,10.001 C20.469,9.417 19.998,8.856 19.369,8.318 L21.008,8.318 L22.736,7.218 L17.506,7.218 C16.563,7.218 15.665,7.352 14.768,7.622 C13.892,7.891 13.129,8.295 12.478,8.856 C11.962,9.305 11.558,9.844 11.244,10.495 C10.952,11.146 10.795,11.797 10.795,12.493 C10.795,13.727 11.221,14.737 12.074,15.545 C12.905,16.353 13.96,16.757 15.194,16.757 C15.374,16.757 15.665,16.735 16.047,16.712 C15.868,17.116 15.778,17.453 15.778,17.767 C15.778,18.104 15.845,18.396 15.98,18.665 C16.092,18.934 16.294,19.249 16.563,19.608 C14.296,19.742 12.613,20.169 11.513,20.842 C10.885,21.224 10.391,21.718 10.032,22.279 C9.65,22.862 9.471,23.491 9.471,24.164 C9.471,24.748 9.628,25.309 9.942,25.803 L9.942,25.803 Z M12.142,22.279 C12.366,21.875 12.658,21.56 12.995,21.336 C13.354,21.112 13.758,20.91 14.207,20.753 C14.678,20.618 15.127,20.506 15.553,20.438 C15.98,20.393 16.429,20.371 16.878,20.371 C17.125,20.371 17.327,20.371 17.461,20.393 C17.484,20.393 17.641,20.506 17.933,20.708 C18.202,20.91 18.382,21.044 18.449,21.089 C18.516,21.134 18.673,21.246 18.92,21.448 C19.145,21.65 19.302,21.785 19.392,21.875 C19.481,21.987 19.594,22.122 19.773,22.324 C19.93,22.503 20.042,22.683 20.11,22.84 C20.177,22.997 20.222,23.154 20.289,23.356 C20.357,23.558 20.379,23.76 20.379,23.985 C20.379,24.501 20.267,24.95 20.042,25.331 C19.796,25.735 19.504,26.027 19.122,26.252 C18.741,26.476 18.314,26.633 17.865,26.745 C17.416,26.858 16.945,26.903 16.474,26.903 C15.935,26.903 15.396,26.835 14.88,26.723 C14.341,26.611 13.847,26.409 13.376,26.162 C12.905,25.915 12.523,25.578 12.231,25.13 C11.94,24.68 11.805,24.164 11.805,23.581 C11.805,23.087 11.917,22.66 12.142,22.279 L12.142,22.279 Z M13.713,9.148 C13.915,8.879 14.207,8.654 14.543,8.497 C14.88,8.34 15.217,8.25 15.576,8.25 C16.092,8.25 16.586,8.43 17.035,8.766 C17.484,9.103 17.843,9.53 18.09,10.068 C18.359,10.585 18.561,11.123 18.696,11.684 C18.853,12.246 18.92,12.762 18.92,13.256 C18.92,14.086 18.696,14.759 18.247,15.231 C18.045,15.455 17.753,15.635 17.416,15.77 C17.08,15.927 16.765,15.994 16.451,15.994 C16.002,15.994 15.598,15.882 15.239,15.657 C14.858,15.455 14.543,15.164 14.296,14.827 C14.049,14.49 13.825,14.086 13.645,13.66 C13.466,13.233 13.331,12.807 13.264,12.38 C13.174,11.954 13.129,11.527 13.129,11.146 C13.129,10.315 13.331,9.642 13.713,9.148 L13.713,9.148 Z M25.295,17.296 L25.295,20.034 L26.619,20.034 L26.619,17.296 L29.268,17.296 L29.268,15.949 L26.619,15.949 L26.619,13.233 L25.295,13.233 L25.295,15.949 L22.669,15.949 L22.669,17.296 L25.295,17.296 L25.295,17.296 Z" id="Fill-1" fill="#5D5D5D"></path>
                        <ellipse id="Oval-15" stroke="#979797" cx="17.5" cy="17.5" rx="17.5" ry="17.5"></ellipse>
                    </g>
                </g>
            </g>
        </g>
    </g>
</svg>