<?xml version="1.0" encoding="UTF-8" standalone="no"?>
<svg width="37px" height="37px" viewBox="0 0 37 37" version="1.1" xmlns="http://www.w3.org/2000/svg" xmlns:xlink="http://www.w3.org/1999/xlink">
    <!-- Generator: Sketch 3.6.1 (26313) - http://www.bohemiancoding.com/sketch -->
    <title>fa-github</title>
    <desc>Created with Sketch.</desc>
    <defs></defs>
    <g id="Page-1" stroke="none" stroke-width="1" fill="none" fill-rule="evenodd">
        <g id="Desktop-HD" transform="translate(-582.000000, -1191.000000)">
            <g id="about-me" transform="translate(0.000000, 660.000000)">
                <g id="social-icons" transform="translate(583.000000, 532.000000)">
                    <g id="fa-github">
                        <path d="M9.71,22.147 C10.922,23.83 12.516,24.997 14.446,25.626 C14.671,25.671 14.828,25.648 14.94,25.536 C15.052,25.446 15.097,25.312 15.097,25.177 L15.097,24.503 L15.097,23.381 L14.805,23.426 C14.626,23.471 14.401,23.471 14.11,23.471 C13.84,23.471 13.548,23.449 13.234,23.381 C12.942,23.336 12.651,23.202 12.404,23 C12.134,22.82 11.955,22.551 11.843,22.236 L11.73,21.945 C11.641,21.765 11.506,21.541 11.326,21.316 C11.147,21.069 10.967,20.912 10.788,20.845 L10.698,20.778 C10.631,20.733 10.586,20.688 10.541,20.62 C10.496,20.576 10.451,20.508 10.428,20.441 C10.406,20.396 10.428,20.351 10.496,20.306 C10.541,20.261 10.675,20.239 10.855,20.239 L11.102,20.284 C11.259,20.329 11.483,20.418 11.708,20.576 C11.955,20.755 12.157,20.98 12.336,21.226 C12.516,21.586 12.74,21.832 13.032,22.012 C13.302,22.192 13.571,22.281 13.84,22.281 C14.11,22.281 14.356,22.259 14.559,22.236 C14.76,22.192 14.94,22.124 15.12,22.034 C15.187,21.473 15.389,21.047 15.726,20.755 C15.254,20.688 14.828,20.62 14.446,20.531 C14.065,20.418 13.683,20.261 13.279,20.037 C12.875,19.812 12.538,19.521 12.269,19.206 C12,18.87 11.775,18.421 11.596,17.882 C11.439,17.343 11.349,16.715 11.349,15.997 C11.349,14.987 11.686,14.134 12.336,13.415 C12.022,12.652 12.067,11.799 12.426,10.857 C12.673,10.789 13.032,10.857 13.504,11.036 C13.975,11.216 14.334,11.373 14.559,11.507 C14.76,11.642 14.94,11.754 15.075,11.867 C15.86,11.642 16.668,11.53 17.499,11.53 C18.307,11.53 19.115,11.642 19.901,11.867 L20.372,11.552 C20.686,11.35 21.09,11.171 21.517,11.014 C21.966,10.834 22.302,10.789 22.527,10.857 C22.908,11.799 22.953,12.652 22.639,13.415 C23.29,14.134 23.627,14.987 23.627,15.997 C23.627,16.715 23.537,17.343 23.38,17.882 C23.2,18.443 22.976,18.87 22.706,19.206 C22.437,19.521 22.1,19.812 21.696,20.037 C21.292,20.261 20.888,20.418 20.507,20.531 C20.125,20.62 19.699,20.688 19.227,20.755 C19.654,21.114 19.878,21.72 19.878,22.528 L19.878,25.177 C19.878,25.312 19.923,25.446 20.035,25.536 C20.148,25.648 20.305,25.671 20.529,25.626 C22.459,24.997 24.053,23.83 25.265,22.147 C26.5,20.486 27.106,18.6 27.106,16.513 C27.106,14.762 26.679,13.146 25.826,11.665 C24.951,10.206 23.784,9.038 22.325,8.163 C20.843,7.31 19.227,6.884 17.499,6.884 C15.748,6.884 14.132,7.31 12.651,8.163 C11.192,9.038 10.025,10.206 9.149,11.665 C8.296,13.146 7.87,14.762 7.87,16.513 C7.87,18.6 8.476,20.486 9.71,22.147" id="Fill-172" fill="#5D5D5D"></path>
                        <ellipse id="Oval-15" stroke="#979797" cx="17.5" cy="17.5" rx="17.5" ry="17.5"></ellipse>
                    </g>
                </g>
            </g>
        </g>
    </g>
</svg>