<?xml version="1.0" encoding="UTF-8" standalone="no"?>
<svg width="37px" height="37px" viewBox="0 0 37 37" version="1.1" xmlns="http://www.w3.org/2000/svg" xmlns:xlink="http://www.w3.org/1999/xlink">
    <!-- Generator: Sketch 3.6.1 (26313) - http://www.bohemiancoding.com/sketch -->
    <title>fa-linkedin</title>
    <desc>Created with Sketch.</desc>
    <defs></defs>
    <g id="Page-1" stroke="none" stroke-width="1" fill="none" fill-rule="evenodd">
        <g id="Desktop-HD" transform="translate(-642.000000, -1191.000000)">
            <g id="about-me" transform="translate(0.000000, 660.000000)">
                <g id="social-icons" transform="translate(583.000000, 532.000000)">
                    <g id="fa-linkedin" transform="translate(60.000000, 0.000000)">
                        <path d="M9.498,11.046 C9.902,11.45 10.464,11.652 11.137,11.652 L11.16,11.652 C11.878,11.652 12.439,11.45 12.865,11.046 C13.292,10.619 13.494,10.125 13.494,9.497 C13.494,8.891 13.269,8.375 12.865,7.971 C12.461,7.567 11.9,7.365 11.204,7.365 C10.508,7.365 9.947,7.567 9.521,7.971 C9.094,8.375 8.87,8.891 8.87,9.497 C8.87,10.125 9.072,10.619 9.498,11.046 L9.498,11.046 Z M9.117,25.748 L13.247,25.748 L13.247,13.358 L9.117,13.358 L9.117,25.748 Z M19.644,25.748 L19.644,18.834 C19.644,18.408 19.689,18.071 19.779,17.824 C19.958,17.398 20.228,17.039 20.587,16.747 C20.923,16.455 21.372,16.32 21.911,16.32 C22.629,16.32 23.145,16.567 23.482,17.061 C23.819,17.555 23.998,18.251 23.998,19.126 L23.998,25.748 L28.128,25.748 L28.128,18.655 C28.128,16.814 27.702,15.423 26.827,14.48 C25.951,13.537 24.806,13.066 23.37,13.066 C22.854,13.066 22.36,13.133 21.933,13.268 C21.507,13.38 21.148,13.56 20.834,13.806 C20.542,14.031 20.317,14.255 20.138,14.458 C19.958,14.659 19.779,14.884 19.621,15.153 L19.644,15.153 L19.644,13.358 L15.514,13.358 L15.536,13.964 L15.536,17.667 C15.536,19.732 15.536,22.426 15.514,25.748 L19.644,25.748 L19.644,25.748 Z" id="Fill-54" fill="#5D5D5D"></path>
                        <ellipse id="Oval-15" stroke="#979797" cx="17.5" cy="17.5" rx="17.5" ry="17.5"></ellipse>
                    </g>
                </g>
            </g>
        </g>
    </g>
</svg>