<?xml version="1.0" encoding="UTF-8" standalone="no"?>
<svg width="37px" height="37px" viewBox="0 0 37 37" version="1.1" xmlns="http://www.w3.org/2000/svg" xmlns:xlink="http://www.w3.org/1999/xlink">
    <!-- Generator: Sketch 3.6.1 (26313) - http://www.bohemiancoding.com/sketch -->
    <title>fa-twitter</title>
    <desc>Created with Sketch.</desc>
    <defs></defs>
    <g id="Page-1" stroke="none" stroke-width="1" fill="none" fill-rule="evenodd">
        <g id="Desktop-HD" transform="translate(-762.000000, -1191.000000)">
            <g id="about-me" transform="translate(0.000000, 660.000000)">
                <g id="social-icons" transform="translate(583.000000, 532.000000)">
                    <g id="fa-twitter" transform="translate(180.000000, 0.000000)">
                        <path d="M14.823,25.45 C16.26,25.45 17.606,25.226 18.886,24.777 C20.143,24.305 21.22,23.699 22.118,22.936 C22.993,22.173 23.779,21.298 24.43,20.31 C25.058,19.3 25.552,18.267 25.866,17.19 C26.181,16.113 26.338,15.035 26.338,13.935 L26.338,13.419 C27.123,12.836 27.797,12.14 28.358,11.332 C27.572,11.646 26.809,11.87 26.023,11.938 C26.899,11.421 27.505,10.681 27.797,9.716 C27.011,10.187 26.158,10.524 25.238,10.703 C24.43,9.85 23.442,9.424 22.275,9.424 C21.175,9.424 20.21,9.805 19.424,10.591 C18.639,11.399 18.235,12.342 18.235,13.464 C18.235,13.756 18.28,14.07 18.347,14.384 C16.686,14.317 15.137,13.89 13.678,13.15 C12.242,12.387 11.007,11.399 9.997,10.165 C9.638,10.793 9.436,11.466 9.436,12.207 C9.436,12.88 9.616,13.531 9.93,14.137 C10.267,14.721 10.693,15.192 11.254,15.574 C10.603,15.551 9.997,15.372 9.414,15.058 L9.414,15.103 C9.414,16.09 9.728,16.943 10.334,17.684 C10.962,18.425 11.725,18.873 12.668,19.075 C12.309,19.165 11.95,19.21 11.591,19.21 C11.366,19.21 11.119,19.188 10.828,19.143 C11.097,19.951 11.568,20.624 12.264,21.141 C12.96,21.679 13.746,21.948 14.621,21.948 C13.14,23.116 11.479,23.677 9.593,23.677 C9.234,23.677 8.92,23.677 8.628,23.632 C10.491,24.844 12.578,25.45 14.823,25.45" id="Fill-178" fill="#5D5D5D"></path>
                        <ellipse id="Oval-15" stroke="#979797" cx="17.5" cy="17.5" rx="17.5" ry="17.5"></ellipse>
                    </g>
                </g>
            </g>
        </g>
    </g>
</svg>